<?xml version="1.0" encoding="utf-8"?>
<!-- Generator: Adobe Illustrator 27.0.0, SVG Export Plug-In . SVG Version: 6.00 Build 0)  -->
<svg version="1.1" id="Layer_1" xmlns="http://www.w3.org/2000/svg" xmlns:xlink="http://www.w3.org/1999/xlink" x="0px" y="0px"
	 viewBox="0 0 1461.2 465.5" style="enable-background:new 0 0 1461.2 465.5;" xml:space="preserve">
<style type="text/css">
	.st0{fill:#FEBE98;}
</style>
<g>
	<g transform="translate(81.928267, 314.317408)">
		<g>
			<path class="st0" d="M-58.2,124.5c0,7.3,2.3,11,6.8,11c2.4,0,5.1-0.9,7.8-2.6c2.8-1.7,5-3.3,6.8-4.7c7-5.2,13.1-13.1,18.5-23.8
				c5.4-10.6,9.3-20.2,11.8-29c1.7-5.9,2.7-11.9,2.9-18c0.2-6.1,0.3-12.8,0.3-20.1c-4.2,2.4-9,6.7-14.4,12.8
				c-5.4,6.1-9.6,11.1-12.8,14.9c-6.3,7.7-12.4,16.9-18.5,27.6C-55.2,103.4-58.2,114-58.2,124.5z M-62.9-46.2c0-9,2.4-17.1,7.3-24.2
				c4.9-7.1,10.7-12.9,17.5-17.2c6.8-4.3,12.6-6.5,17.5-6.5c3.8,0,6.7,1.4,8.6,4.2c1.9,2.8,2,7.5,0.3,14.1c-4.2,1-7.1,1.7-8.9,1.8
				c-1.7,0.2-3.1,0.7-4.2,1.6c-1,0.9-3,2.9-5.7,6c-7,7.7-10.2,13.8-9.7,18.5c0.5,4.7,3.3,9,8.4,13c5.1,4,11.3,9,18.8,14.9
				c7.5,5.9,14.5,13.9,21.1,24c7.7-5.2,15.5-11.3,23.5-18.3l48.5-33.9c4.5-3.1,8.4-5.3,11.8-6.5c3.3-1.2,6.2-1.8,8.6-1.8
				c4.2,0,5.9,1.7,5.2,5.2c-0.7,3.5-4,7-9.9,10.4L60.2-16.4c-1.4,0.7-4.3,2.7-8.9,6c-4.5,3.3-9.5,7-14.9,11c-5.4,4-10,7.7-13.8,11.2
				c-3.8,3.5-5.9,5.7-6.2,6.8c-0.3,1.7,0.2,5,1.6,9.9c1.4,4.9,2.4,11.2,2.9,19c0.5,7.8-0.5,17.4-3.1,28.7
				c-2.6,11.3-8.3,24.4-17,39.4c-7.7,12.9-16,22.4-25.1,28.4c-9,6.1-17.6,9.1-25.6,9.1c-7.3,0-13.3-2.4-18-7.3c-4.7-4.9-7-12-7-21.4
				c0-11.8,2.9-23.3,8.6-34.5c5.7-11.1,12.6-21.4,20.6-30.8c8-9.4,15.4-17.5,22.2-24.3c6.8-6.8,11.2-11.8,13.3-14.9
				c-4.2-7.3-9.2-13.7-15.1-19c-5.9-5.4-11.7-10.3-17.5-14.9c-5.7-4.5-10.5-9.3-14.4-14.4C-61-33.2-62.9-39.2-62.9-46.2z"/>
		</g>
	</g>
</g>
<g>
	<g transform="translate(202.466323, 314.317408)">
		<g>
			<path class="st0" d="M-24.3-1.3c0-25,0.6-50.1,1.8-75.1c1.2-25.1,2.9-49.2,5-72.5c0.3-2.4,1-8.2,2.1-17.2
				c1-9.1,2.4-19.6,4.2-31.6c1.7-12,3.8-23.7,6.3-35.2c2.4-11.5,5.2-21.1,8.4-28.7c3.1-7.7,6.4-11.5,9.9-11.5c7,0,11,1.8,12,5.5
				c1.1,3.7,0.7,8.6-1,14.9c-1.7,6.3-3.3,13.4-4.7,21.4c-4.5,25.7-8.6,53.6-12.3,83.5C3.6-118,0.8-88.3-1.1-58.7C-3-29.1-4-2-4,22.7
				c0.7-0.7,2.8-4.4,6.2-11.2c3.5-6.8,7.9-15.4,13.3-25.8C21-24.8,26.8-35.8,33.1-47.5c6.3-11.7,12.5-22.6,18.8-32.9
				c6.3-10.3,11.9-18.6,17-25c5-6.4,8.9-9.7,11.7-9.7c7.7,0,11,1.8,10.2,5.5c-0.9,3.7-3.7,8.6-8.6,14.9C77.3-88.4,72.2-81,67-72.3
				c-1.4,2.1-2.7,4.1-3.9,6c-1.2,1.9-2.5,3.9-3.9,6C56-55.1,54-51,52.9-48c-1,3-1.5,6.6-1.3,11c0.2,4.3,0.8,11.6,1.8,21.6
				c0.7,7.3,2.2,16.6,4.4,27.9c2.3,11.3,5,22.6,8.1,33.9c3.1,11.3,5.9,20.4,8.4,27.4c2.8,6.6,5.2,11.5,7.3,14.6
				c2.1,3.1,3.5,6.4,4.2,9.9c-1.4,1.4-2.8,2.9-4.2,4.4c-1.4,1.6-3.1,2.4-5.2,2.4c-0.7,0-2.1-0.3-4.2-1c-4.2-2.1-7.8-5.7-10.7-11
				c-3-5.2-5.4-10.8-7.3-16.7c-1.9-5.9-3.6-10.9-4.9-15.1c-3.8-11.5-7-23.2-9.4-35.2c-2.4-12-5-23.9-7.8-35.8l-23,50.1
				C6.7,48.1,4.5,56,2.6,64.2c-1.9,8.2-4,15.1-6.3,20.6c-2.2,5.6-5.1,8.4-8.6,8.4c-4.5,0-7.4-1.7-8.6-5c-1.2-3.3-1.7-7.4-1.6-12.3
				c0.2-4.9,0.1-9.4-0.2-13.6c-0.3-3.8-0.7-6.8-1-8.9c-0.3-2.1-0.5-5.6-0.5-10.4V-1.3z"/>
		</g>
	</g>
</g>
<g>
	<g transform="translate(298.740166, 314.317408)">
		<g>
			<path class="st0" d="M51.1,40.4c-7,0-13.1-2.3-18.5-6.8c-5.4-4.5-9.5-9.2-12.3-14.1C14,7.7,10.5-6.3,9.6-22.4
				c-0.9-16.2,0.1-30.9,2.9-44.1c0.7-3.8,1.7-8.4,2.9-13.8c1.2-5.4,3-10.2,5.5-14.4c2.4-4.2,5.4-6.3,8.9-6.3c8,0,11.9,2.7,11.7,8.1
				c-0.2,5.4-1.6,13.7-4.4,25c-2.8,11.3-4.2,25.8-4.2,43.6c0,5.2,0.7,11.5,2.1,18.8c1.4,7.3,3.6,13.7,6.5,19.3
				c3,5.6,6.7,8.4,11.2,8.4c5.6,0,11.9-2.4,19-7.3C78.8,10,85.4,4.5,91.5-1.6c6.1-6.1,10.3-10.7,12.8-13.8c0.7-0.7,2.6-3,5.7-7
				c3.1-4,6.9-8.5,11.2-13.6c4.3-5,8.6-9.5,12.8-13.3c4.2-3.8,7.5-5.8,9.9-5.8c2.4,0,3.7,2.1,3.7,6.2c0,2.4-1.7,6.2-5,11.2
				c-3.3,5-7.2,10.3-11.8,15.9c-4.5,5.6-9,10.8-13.3,15.6c-4.3,4.9-7.6,8.4-9.6,10.4c-4.2,4.2-9.1,9.1-14.9,14.9
				C87.4,25,81,30,74.1,34.2C67.1,38.3,59.4,40.4,51.1,40.4z M34.4-166.7c0-5.9,1.6-11,4.7-15.4c3.1-4.3,6.6-6.5,10.5-6.5
				c4.2,0,7.6,2.6,10.4,7.8c4.9,9.8,5.5,17.3,1.8,22.7c-3.7,5.4-8.1,8.1-13.3,8.1c-3.5,0-6.7-1.4-9.7-4.2
				C35.9-157,34.4-161.2,34.4-166.7z"/>
		</g>
	</g>
</g>
<g>
	<g transform="translate(395.405446, 314.317408)">
		<g>
			<path class="st0" d="M54.6,11.2c-6.6,0-10.9-4-12.8-12c-1.9-8-2.2-18-0.8-30c1.4-12,3.9-24,7.6-36c3.7-12,7.7-22,12.2-30
				c4.5-8,8.7-12,12.5-12c5.9,0,8.7,2.7,8.4,8.1c-0.3,5.4-2.1,12.5-5.2,21.4c-3.1,8.9-6.3,18.6-9.4,29.2c-3.1,10.6-4.7,20.9-4.7,31
				l25-38.1c1-2.1,3.3-5.7,6.8-10.9c3.5-5.2,7.4-10.1,11.8-14.6c4.4-4.5,8.6-6.8,12.8-6.8c4.2,0,7.5,2.8,9.9,8.4l3.1,29.2
				c0,3.1,0.2,8,0.5,14.6c0.3,6.6,1.1,13.3,2.4,20.1c1.2,6.8,3.2,12.6,6,17.5c2.8,4.9,6.6,7.3,11.5,7.3c5.2,0,10.7-3.1,16.4-9.4
				c5.7-6.3,11.3-13.5,16.7-21.7c5.4-8.2,10.3-15.4,14.6-21.6c4.3-6.3,7.7-9.4,10.2-9.4c5.2,0,7.7,2,7.3,6c-0.3,4-2.1,8.6-5.2,13.8
				c-3.1,5.2-6.3,10.1-9.6,14.6c-3.3,4.5-5.3,7.3-6,8.3c-2.4,3.1-5.7,7.1-9.9,12c-4.2,4.9-8.5,9.4-13,13.6c-4.5,4.2-8.9,6.8-13,7.8
				c-3.5,1.1-6.8,1.6-9.9,1.6c-8,0-14.3-3-19-8.9C126.9,8.4,123.3,2,120.9-5c-3.5-10.4-5.4-19.7-5.7-27.9c-0.3-8.2-0.3-15.1,0-20.9
				c0.3-5.7-0.3-10.2-2.1-13.3c-4.2,2.8-8.6,8.3-13.3,16.7c-4.7,8.3-9.6,17.3-14.6,26.9C80.1-13.9,75-5.7,70,1.1
				C65,7.8,59.8,11.2,54.6,11.2z"/>
		</g>
	</g>
</g>
<g>
	<g transform="translate(520.248398, 314.317408)">
		<g>
			<path class="st0" d="M87.9,124.5c0,7.3,2.3,11,6.8,11c2.4,0,5.1-0.9,7.8-2.6c2.8-1.7,5-3.3,6.8-4.7c7-5.2,13.1-13.1,18.5-23.8
				c5.4-10.6,9.3-20.2,11.8-29c1.7-5.9,2.7-11.9,2.9-18c0.2-6.1,0.3-12.8,0.3-20.1c-4.2,2.4-9,6.7-14.4,12.8
				c-5.4,6.1-9.6,11.1-12.8,14.9c-6.3,7.7-12.4,16.9-18.5,27.6C90.9,103.4,87.9,114,87.9,124.5z M83.2-46.2c0-9,2.4-17.1,7.3-24.2
				c4.9-7.1,10.7-12.9,17.5-17.2c6.8-4.3,12.6-6.5,17.5-6.5c3.8,0,6.7,1.4,8.6,4.2c1.9,2.8,2,7.5,0.3,14.1c-4.2,1-7.1,1.7-8.9,1.8
				c-1.7,0.2-3.1,0.7-4.2,1.6c-1,0.9-3,2.9-5.7,6c-7,7.7-10.2,13.8-9.7,18.5c0.5,4.7,3.3,9,8.4,13c5.1,4,11.3,9,18.8,14.9
				c7.5,5.9,14.5,13.9,21.1,24c7.7-5.2,15.5-11.3,23.5-18.3l48.5-33.9c4.5-3.1,8.4-5.3,11.8-6.5c3.3-1.2,6.2-1.8,8.6-1.8
				c4.2,0,5.9,1.7,5.2,5.2c-0.7,3.5-4,7-9.9,10.4l-35.5,24.5c-1.4,0.7-4.3,2.7-8.9,6c-4.5,3.3-9.5,7-14.9,11
				c-5.4,4-10,7.7-13.8,11.2c-3.8,3.5-5.9,5.7-6.2,6.8c-0.3,1.7,0.2,5,1.6,9.9c1.4,4.9,2.4,11.2,2.9,19c0.5,7.8-0.5,17.4-3.1,28.7
				c-2.6,11.3-8.3,24.4-17,39.4c-7.7,12.9-16,22.4-25.1,28.4c-9,6.1-17.6,9.1-25.6,9.1c-7.3,0-13.3-2.4-18-7.3c-4.7-4.9-7-12-7-21.4
				c0-11.8,2.9-23.3,8.6-34.5c5.7-11.1,12.6-21.4,20.6-30.8c8-9.4,15.4-17.5,22.2-24.3c6.8-6.8,11.2-11.8,13.3-14.9
				c-4.2-7.3-9.2-13.7-15.1-19c-5.9-5.4-11.7-10.3-17.5-14.9c-5.7-4.5-10.5-9.3-14.4-14.4C85.1-33.2,83.2-39.2,83.2-46.2z"/>
		</g>
	</g>
</g>
<g>
	<g transform="translate(640.786454, 314.317408)">
		<g>
			<path class="st0" d="M-24.8-194.4c0-4.5,4.2-9.3,12.5-14.4c8.3-5,18.9-10,31.6-14.9c12.7-4.9,26.1-9.5,40.2-13.8
				c14.1-4.3,27-8.1,38.9-11.2c11.8-3.1,20.7-5.6,26.6-7.3c7.3-2.1,12.4-3.3,15.4-3.6c3-0.3,4.9-1.5,5.7-3.4
				c0.9-1.9,1.8-5.8,2.9-11.8c2.8-14.3,6-24.1,9.7-29.5c3.7-5.4,7.2-8.1,10.7-8.1c2.8,0,5.1,1.5,7,4.4c1.9,3,2.9,6.5,2.9,10.7
				c0,3.1-0.2,4.4-0.5,3.9c-0.3-0.5-0.3,0.6,0,3.4c0,0.7,0.1,1.6,0.2,2.6c0.2,1,0.3,2.4,0.3,4.2c0,4.5-0.9,6.8-2.6,6.8
				c-1.7,0-3.5,0.3-5.2,0.8c-1.7,0.5-2.6,3.6-2.6,9.1c4.2,0,8.8-0.6,13.8-1.8c5-1.2,9.5-2,13.3-2.4c15.3-2.8,30.6-5.3,45.9-7.6
				c15.3-2.3,31-3.4,47-3.4c8.3,0,14.4,1.7,18.2,5.2c3.8,3.5,5.2,7,4.2,10.4c-1,3.5-4.9,5.2-11.5,5.2c-0.7-2.8-1.1-4.1-1.3-3.9
				c-0.2,0.2-1.8-0.1-5-0.8c-1.4-0.3-4.2-0.5-8.3-0.5c-7.3,0-17,0.8-29,2.4c-12,1.6-24.4,3.4-37.3,5.5c-12.9,2.1-24.3,4.1-34.4,6
				c-10.1,1.9-16.7,3.2-19.8,3.9l-10.4,107c-0.3,2.4-0.4,5-0.3,7.8c0.2,2.8,0.3,5.6,0.3,8.3c0,3.5-0.3,5.8-0.8,6.8
				c-0.5,1-0.8,3.5-0.8,7.3c0,7.7,0.2,16.4,0.5,26.4c0.3,9.9,0.2,17.6-0.5,23.2c-0.3,3.1-0.6,9.3-0.8,18.5
				c-0.2,9.2-0.3,19.9-0.5,32.1c-0.2,12.2-0.2,24.4-0.2,36.8c0,12.3,0,23.6,0,33.6s0.2,17.4,0.5,21.9c0,3.8,0.4,9.6,1.3,17.5
				c0.9,7.8,1,14.9,0.5,21.1c-0.5,6.3-3,9.4-7.6,9.4c-6.6,0-10.6-3.7-12-11c-1.4-7.3-2.1-14.1-2.1-20.4c-1-12.5-1.7-27.1-1.8-43.8
				c-0.2-16.7-0.2-33.4,0-50.1c0.2-16.7,0.3-31.3,0.3-43.8l1.6-24.5c0-4.9,0-12.4,0-22.4c0-10.1,0.2-20.8,0.5-32.1
				c0.3-11.3,0.7-21.7,1-31c0.3-9.4,0.9-16,1.6-19.8c0.7-3.5,1.1-7.6,1.3-12.5c0.2-4.9,0.4-9.1,0.8-12.5l4.7-48.5
				c-1.4,0.3-4.4,1-9.1,2.1c-4.7,1-8.4,1.9-11.2,2.6c-17,4.2-33.3,8.6-48.8,13.3c-15.5,4.7-31.4,10.2-47.8,16.4
				c-3.1,1.4-6,2.9-8.6,4.4c-2.6,1.6-5.5,3-8.6,4.4c-4.2,1.7-6.9,3-8.1,3.6c-1.2,0.7-1.8,1.6-1.8,2.6s-0.9,3.3-2.6,6.8
				c-1.4,0.3-2.8,0.6-4.2,0.8c-1.4,0.2-2.9,0.2-4.7,0.2c-2.8,0-5.3-0.6-7.6-1.8C-23.7-188.5-24.8-190.9-24.8-194.4z"/>
		</g>
	</g>
</g>
<g>
	<g transform="translate(693.61966, 314.317408)">
		<g>
			<path class="st0" d="M182.7,40.4c-7,0-13.1-2.3-18.5-6.8c-5.4-4.5-9.5-9.2-12.3-14.1c-6.3-11.8-9.8-25.8-10.7-42
				c-0.9-16.2,0.1-30.9,2.9-44.1c0.7-3.8,1.7-8.4,2.9-13.8c1.2-5.4,3-10.2,5.5-14.4c2.4-4.2,5.4-6.3,8.9-6.3c8,0,11.9,2.7,11.7,8.1
				c-0.2,5.4-1.6,13.7-4.4,25c-2.8,11.3-4.2,25.8-4.2,43.6c0,5.2,0.7,11.5,2.1,18.8c1.4,7.3,3.6,13.7,6.5,19.3
				c3,5.6,6.7,8.4,11.2,8.4c5.6,0,11.9-2.4,19-7.3c7.1-4.9,13.8-10.4,19.8-16.4c6.1-6.1,10.3-10.7,12.8-13.8c0.7-0.7,2.6-3,5.7-7
				c3.1-4,6.9-8.5,11.2-13.6c4.3-5,8.6-9.5,12.8-13.3c4.2-3.8,7.5-5.8,9.9-5.8c2.4,0,3.7,2.1,3.7,6.2c0,2.4-1.7,6.2-5,11.2
				c-3.3,5-7.2,10.3-11.8,15.9c-4.5,5.6-9,10.8-13.3,15.6c-4.3,4.9-7.6,8.4-9.6,10.4c-4.2,4.2-9.1,9.1-14.9,14.9
				c-5.7,5.7-12.1,10.7-19,14.9C198.7,38.3,191.1,40.4,182.7,40.4z M166-166.7c0-5.9,1.6-11,4.7-15.4c3.1-4.3,6.6-6.5,10.5-6.5
				c4.2,0,7.6,2.6,10.4,7.8c4.9,9.8,5.5,17.3,1.8,22.7c-3.7,5.4-8.1,8.1-13.3,8.1c-3.5,0-6.7-1.4-9.7-4.2
				C167.5-157,166-161.2,166-166.7z"/>
		</g>
	</g>
</g>
<g>
	<g transform="translate(790.28496, 314.317408)">
		<g>
			<path class="st0" d="M186.2,11.2c-6.6,0-10.9-4-12.8-12c-1.9-8-2.2-18-0.8-30s3.9-24,7.6-36c3.7-12,7.7-22,12.2-30
				c4.5-8,8.7-12,12.5-12c5.9,0,8.7,2.7,8.4,8.1c-0.3,5.4-2.1,12.5-5.2,21.4c-3.1,8.9-6.3,18.6-9.4,29.2c-3.1,10.6-4.7,20.9-4.7,31
				l25-38.1c1-2.1,3.3-5.7,6.8-10.9c3.5-5.2,7.4-10.1,11.8-14.6c4.4-4.5,8.6-6.8,12.8-6.8c4.2,0,7.5,2.8,9.9,8.4l3.1,29.2
				c0,3.1,0.2,8,0.5,14.6c0.3,6.6,1.1,13.3,2.4,20.1c1.2,6.8,3.2,12.6,6,17.5c2.8,4.9,6.6,7.3,11.5,7.3c5.2,0,10.7-3.1,16.4-9.4
				c5.7-6.3,11.3-13.5,16.7-21.7c5.4-8.2,10.3-15.4,14.6-21.6c4.3-6.3,7.7-9.4,10.2-9.4c5.2,0,7.7,2,7.3,6c-0.3,4-2.1,8.6-5.2,13.8
				c-3.1,5.2-6.3,10.1-9.6,14.6c-3.3,4.5-5.3,7.3-6,8.3c-2.4,3.1-5.7,7.1-9.9,12c-4.2,4.9-8.5,9.4-13,13.6c-4.5,4.2-8.9,6.8-13,7.8
				c-3.5,1.1-6.8,1.6-9.9,1.6c-8,0-14.3-3-19-8.9C258.5,8.4,254.9,2,252.5-5c-3.5-10.4-5.4-19.7-5.7-27.9c-0.3-8.2-0.3-15.1,0-20.9
				c0.3-5.7-0.3-10.2-2.1-13.3c-4.2,2.8-8.6,8.3-13.3,16.7c-4.7,8.3-9.6,17.3-14.6,26.9c-5,9.6-10.1,17.8-15.1,24.5
				C196.6,7.8,191.5,11.2,186.2,11.2z"/>
		</g>
	</g>
</g>
<g>
	<g transform="translate(915.127948, 314.317408)">
		<g>
			<path class="st0" d="M213.2-33.1c0-6.3,1.3-13.6,3.9-21.9c2.6-8.4,6.3-16.5,11-24.5c4.7-8,10.3-14.7,16.7-20.1
				c6.4-5.4,13.5-8.1,21.1-8.1c11.1,0,16.7,7,16.7,20.9c0,9-2.3,13.6-6.8,13.6c-5.2,0-8.4-4.5-9.4-13.6c-5.9,4.2-11.6,11.3-17,21.4
				c-5.4,10.1-9,20.9-10.7,32.4c-1.7,11.5-0.5,21.6,3.7,30.3c1.7,4.5,4.3,8.4,7.6,11.5c3.3,3.1,8.1,4.7,14.4,4.7
				c12.2,0,23.4-3.4,33.6-10.2c10.3-6.8,19.7-15,28.2-24.5c8.5-9.6,15.9-18.7,22.2-27.4c3.8-5.2,7.3-7.8,10.4-7.8
				c2.4,0,4.2,1.2,5.2,3.7c1.1,2.4,0.7,5.4-1,8.9c-0.7,1.7-1.8,3.6-3.4,5.7c-1.6,2.1-3,4-4.4,5.8c-7.3,9-15.7,18.4-25.1,28.2
				c-9.4,9.7-19.7,18-30.8,24.8c-11.1,6.8-22.9,10.2-35.5,10.2c-11.8,0-21.5-3-29-9.1c-7.5-6.1-13-14-16.4-23.7
				C215-12.1,213.2-22.3,213.2-33.1z"/>
		</g>
	</g>
</g>
<g>
	<g transform="translate(1017.272227, 314.317408)">
		<g>
			<path class="st0" d="M100.7-194.4c0-4.5,4.2-9.3,12.5-14.4c8.3-5,18.9-10,31.6-14.9c12.7-4.9,26.1-9.5,40.2-13.8
				c14.1-4.3,27-8.1,38.9-11.2c11.8-3.1,20.7-5.6,26.6-7.3c7.3-2.1,12.4-3.3,15.4-3.6c3-0.3,4.9-1.5,5.7-3.4
				c0.9-1.9,1.8-5.8,2.9-11.8c2.8-14.3,6-24.1,9.7-29.5c3.7-5.4,7.2-8.1,10.7-8.1c2.8,0,5.1,1.5,7,4.4c1.9,3,2.9,6.5,2.9,10.7
				c0,3.1-0.2,4.4-0.5,3.9c-0.3-0.5-0.3,0.6,0,3.4c0,0.7,0.1,1.6,0.2,2.6c0.2,1,0.3,2.4,0.3,4.2c0,4.5-0.9,6.8-2.6,6.8
				c-1.7,0-3.5,0.3-5.2,0.8c-1.7,0.5-2.6,3.6-2.6,9.1c4.2,0,8.8-0.6,13.8-1.8c5-1.2,9.5-2,13.3-2.4c15.3-2.8,30.6-5.3,45.9-7.6
				c15.3-2.3,31-3.4,47-3.4c8.3,0,14.4,1.7,18.2,5.2c3.8,3.5,5.2,7,4.2,10.4c-1,3.5-4.9,5.2-11.5,5.2c-0.7-2.8-1.1-4.1-1.3-3.9
				c-0.2,0.2-1.8-0.1-5-0.8c-1.4-0.3-4.2-0.5-8.3-0.5c-7.3,0-17,0.8-29,2.4c-12,1.6-24.4,3.4-37.3,5.5c-12.9,2.1-24.3,4.1-34.4,6
				c-10.1,1.9-16.7,3.2-19.8,3.9l-10.4,107c-0.3,2.4-0.4,5-0.3,7.8c0.2,2.8,0.3,5.6,0.3,8.3c0,3.5-0.3,5.8-0.8,6.8
				c-0.5,1-0.8,3.5-0.8,7.3c0,7.7,0.2,16.4,0.5,26.4c0.3,9.9,0.2,17.6-0.5,23.2c-0.3,3.1-0.6,9.3-0.8,18.5
				c-0.2,9.2-0.3,19.9-0.5,32.1c-0.2,12.2-0.2,24.4-0.2,36.8c0,12.3,0,23.6,0,33.6s0.2,17.4,0.5,21.9c0,3.8,0.4,9.6,1.3,17.5
				c0.9,7.8,1,14.9,0.5,21.1c-0.5,6.3-3,9.4-7.6,9.4c-6.6,0-10.6-3.7-12-11c-1.4-7.3-2.1-14.1-2.1-20.4c-1-12.5-1.7-27.1-1.8-43.8
				c-0.2-16.7-0.2-33.4,0-50.1c0.2-16.7,0.3-31.3,0.3-43.8l1.6-24.5c0-4.9,0-12.4,0-22.4c0-10.1,0.2-20.8,0.5-32.1
				c0.3-11.3,0.7-21.7,1-31c0.3-9.4,0.9-16,1.6-19.8c0.7-3.5,1.1-7.6,1.3-12.5c0.2-4.9,0.4-9.1,0.8-12.5l4.7-48.5
				c-1.4,0.3-4.4,1-9.1,2.1c-4.7,1-8.4,1.9-11.2,2.6c-17,4.2-33.3,8.6-48.8,13.3c-15.5,4.7-31.4,10.2-47.8,16.4
				c-3.1,1.4-6,2.9-8.6,4.4c-2.6,1.6-5.5,3-8.6,4.4c-4.2,1.7-6.9,3-8.1,3.6c-1.2,0.7-1.8,1.6-1.8,2.6s-0.9,3.3-2.6,6.8
				c-1.4,0.3-2.8,0.6-4.2,0.8c-1.4,0.2-2.9,0.2-4.7,0.2c-2.8,0-5.3-0.6-7.6-1.8C101.8-188.5,100.7-190.9,100.7-194.4z"/>
		</g>
	</g>
</g>
</svg>
